<?xml version="1.0" encoding="UTF-8"?>
<svg width="1200pt" height="1200pt" version="1.1" viewBox="0 0 1200 1200" xmlns="http://www.w3.org/2000/svg">
 <path d="m894 111.6c-4.8008-4.8008-12-7.1992-19.199-7.1992-3.6016 0-7.1992 1.1992-10.801 2.3984l-86.398 39.602v-50.398c0-7.1992-2.3984-13.199-7.1992-18-4.8008-4.8008-10.801-7.1992-18-7.1992-3.6016 0-6 0-9.6016 1.1992l-448.8 170.39h1.1992l-1.1992 847.2 174 37.203 18 3.6016 13.199-6 380.4-176.4c12-6 20.398-18 20.398-32.398l1.1992-786c1.1992-7.2031-1.1992-13.203-7.1992-18zm-145.2-10.801v58.801l-265.2 122.4-13.199-2.3984c10.801-7.1992 16.801-16.801 15.602-26.398-3.6016-15.602-31.199-24-62.398-18-20.398 3.6016-38.398 13.199-46.801 24l-28.805-4.8047zm-280.8 993.6-145.2-30 1.1992-783.6 145.2 30zm402-178.8c0 1.1992-1.1992 3.6016-2.3984 3.6016l-368.4 170.4 1.1992-781.2 248.4-115.2 30-13.199 92.398-43.199z"/>
</svg>
